<svg xmlns="http://www.w3.org/2000/svg" width="25.976" height="23.409" viewBox="0 0 25.976 23.409">
    <defs>
        <style>
          .cls-1{fill:#fff}
        </style>
    </defs>
    <g id="currency" transform="translate(0 -25.297)">
        <g id="Group_8" data-name="Group 8" transform="translate(0 46.683)">
            <g id="Group_7" data-name="Group 7">
                <path id="Rectangle_14" d="M0 0h7.631v2.023H0z" class="cls-1" data-name="Rectangle 14"/>
            </g>
        </g>
        <g id="Group_10" data-name="Group 10" transform="translate(9.172 46.683)">
            <g id="Group_9" data-name="Group 9">
                <path id="Rectangle_15" d="M0 0h7.631v2.023H0z" class="cls-1" data-name="Rectangle 15"/>
            </g>
        </g>
        <g id="Group_12" data-name="Group 12" transform="translate(18.345 46.683)">
            <g id="Group_11" data-name="Group 11">
                <path id="Rectangle_16" d="M0 0h7.631v2.023H0z" class="cls-1" data-name="Rectangle 16"/>
            </g>
        </g>
        <g id="Group_14" data-name="Group 14" transform="translate(0 43.119)">
            <g id="Group_13" data-name="Group 13">
                <path id="Rectangle_17" d="M0 0h7.631v2.023H0z" class="cls-1" data-name="Rectangle 17"/>
            </g>
        </g>
        <g id="Group_16" data-name="Group 16" transform="translate(9.172 43.119)">
            <g id="Group_15" data-name="Group 15">
                <path id="Rectangle_18" d="M0 0h7.631v2.023H0z" class="cls-1" data-name="Rectangle 18"/>
            </g>
        </g>
        <g id="Group_18" data-name="Group 18" transform="translate(18.345 43.119)">
            <g id="Group_17" data-name="Group 17">
                <path id="Rectangle_19" d="M0 0h7.631v2.023H0z" class="cls-1" data-name="Rectangle 19"/>
            </g>
        </g>
        <g id="Group_20" data-name="Group 20" transform="translate(0 39.555)">
            <g id="Group_19" data-name="Group 19">
                <path id="Rectangle_20" d="M0 0h7.631v2.023H0z" class="cls-1" data-name="Rectangle 20"/>
            </g>
        </g>
        <g id="Group_22" data-name="Group 22" transform="translate(9.172 39.555)">
            <g id="Group_21" data-name="Group 21">
                <path id="Rectangle_21" d="M0 0h7.631v2.023H0z" class="cls-1" data-name="Rectangle 21"/>
            </g>
        </g>
        <g id="Group_24" data-name="Group 24" transform="translate(18.345 39.555)">
            <g id="Group_23" data-name="Group 23">
                <path id="Rectangle_22" d="M0 0h7.631v2.023H0z" class="cls-1" data-name="Rectangle 22"/>
            </g>
        </g>
        <g id="Group_26" data-name="Group 26" transform="translate(0 35.99)">
            <g id="Group_25" data-name="Group 25">
                <path id="Rectangle_23" d="M0 0h7.631v2.023H0z" class="cls-1" data-name="Rectangle 23"/>
            </g>
        </g>
        <g id="Group_28" data-name="Group 28" transform="translate(9.172 35.99)">
            <g id="Group_27" data-name="Group 27">
                <path id="Rectangle_24" d="M0 0h7.631v2.023H0z" class="cls-1" data-name="Rectangle 24"/>
            </g>
        </g>
        <g id="Group_30" data-name="Group 30" transform="translate(0 32.426)">
            <g id="Group_29" data-name="Group 29">
                <path id="Rectangle_25" d="M0 0h7.631v2.023H0z" class="cls-1" data-name="Rectangle 25"/>
            </g>
        </g>
        <g id="Group_32" data-name="Group 32" transform="translate(9.172 32.426)">
            <g id="Group_31" data-name="Group 31">
                <path id="Rectangle_26" d="M0 0h7.631v2.023H0z" class="cls-1" data-name="Rectangle 26"/>
            </g>
        </g>
        <g id="Group_34" data-name="Group 34" transform="translate(9.172 28.861)">
            <g id="Group_33" data-name="Group 33">
                <path id="Rectangle_27" d="M0 0h7.631v2.023H0z" class="cls-1" data-name="Rectangle 27"/>
            </g>
        </g>
        <g id="Group_36" data-name="Group 36" transform="translate(9.172 25.297)">
            <g id="Group_35" data-name="Group 35">
                <path id="Rectangle_28" d="M0 0h7.631v2.023H0z" class="cls-1" data-name="Rectangle 28"/>
            </g>
        </g>
    </g>
</svg>
