<svg id="Layer_1" fill="#fff" height="15" viewBox="0 0 128 128" width="15" xmlns="http://www.w3.org/2000/svg" data-name="Layer 1"><path d="m121.5 16.442h-35.85v-9.942a1.75 1.75 0 0 0 -1.75-1.75h-39.8a1.751 1.751 0 0 0 -1.75 1.75v9.942h-35.85a1.751 1.751 0 0 0 -1.75 1.75v6a1.75 1.75 0 0 0 1.75 1.75h4.2l11.751 95.771a1.75 1.75 0 0 0 1.737 1.537h79.62a1.752 1.752 0 0 0 1.737-1.537l11.755-95.771h4.2a1.749 1.749 0 0 0 1.75-1.75v-6a1.75 1.75 0 0 0 -1.75-1.75zm-75.65-8.192h36.3v8.192h-36.3zm56.411 111.5h-76.523l-11.51-93.808h99.543zm17.489-97.308h-111.5v-2.5h111.5z"/><path d="m42.38 88.47a1.747 1.747 0 0 0 .514 1.238l4.25 4.241a1.748 1.748 0 0 0 2.473 0l14.383-14.384 14.383 14.382a1.749 1.749 0 0 0 2.473 0l4.25-4.241a1.749 1.749 0 0 0 0-2.476l-14.381-14.38 14.383-14.393a1.75 1.75 0 0 0 0-2.476l-4.25-4.24a1.749 1.749 0 0 0 -2.473 0l-14.385 14.384-14.383-14.382a1.75 1.75 0 0 0 -2.473 0l-4.25 4.24a1.749 1.749 0 0 0 0 2.476l14.391 14.391-14.392 14.382a1.748 1.748 0 0 0 -.513 1.238zm18.62-14.382a1.749 1.749 0 0 0 0-2.475l-14.394-14.392 1.772-1.768 14.385 14.384a1.748 1.748 0 0 0 2.474 0l14.385-14.384 1.778 1.769-14.388 14.391a1.749 1.749 0 0 0 0 2.474l14.382 14.381-1.773 1.768-14.384-14.383a1.748 1.748 0 0 0 -2.474 0l-14.385 14.383-1.772-1.767z"/></svg>