<svg xmlns="http://www.w3.org/2000/svg" width="26.889" height="19.408" viewBox="0 0 26.889 19.408">
    <path id="prefix__config" d="M23.867 44.782h-1.458a2.258 2.258 0 00.245-1.011 2.475 2.475 0 00-.716-1.685h1.929c1.117 0 2.022.6 2.022 1.348s-.905 1.348-2.022 1.348zm0-7.211H12.255a2.278 2.278 0 00.29-1.1 2.438 2.438 0 00-.637-1.595h11.959c1.117 0 2.022.6 2.022 1.348s-.905 1.348-2.022 1.348zM7.693 39.122a2.561 2.561 0 112.561-2.561 2.561 2.561 0 01-2.561 2.561zM3.2 37.572H1.022c-1.117 0-2.022-.6-2.022-1.348s.905-1.348 2.022-1.348h2.523a2.437 2.437 0 00-.637 1.595 2.278 2.278 0 00.29 1.1zm-2.178 4.515h12.711a2.475 2.475 0 00-.716 1.685 2.258 2.258 0 00.245 1.011H1.022c-1.117 0-2.022-.6-2.022-1.348s.905-1.348 2.022-1.348zm0 7.278h1.066a2.386 2.386 0 00-.527 1.46 2.313 2.313 0 00.37 1.235h-.909C-.095 52.06-1 51.46-1 50.712s.905-1.347 2.022-1.347zm5.324-1.078a2.561 2.561 0 11-2.561 2.561 2.561 2.561 0 012.561-2.561zm8.9-4.38a2.561 2.561 0 112.554 2.56 2.561 2.561 0 01-2.559-2.561zm1.794 5.459a7.146 7.146 0 001.6 0h5.231c1.117 0 2.022.6 2.022 1.348s-.905 1.348-2.022 1.348H10.828a2.314 2.314 0 00.37-1.235 2.387 2.387 0 00-.527-1.46z" transform="translate(1 -34)" style="fill:#fff;fill-rule:evenodd"/>
</svg>
