<svg xmlns="http://www.w3.org/2000/svg" width="25.9" height="23.6" viewBox="0 0 29.888 27.637">
    <defs>
        <style>
            .cls-1{fill:none}.cls-2,.cls-3{stroke:none}.cls-3{fill:#e61f1d}
        </style>
    </defs>
    <g id="_018-presentation-2" data-name="018-presentation-2" transform="translate(2 -19.333)">
        <g id="Group_2" data-name="Group 2" transform="translate(0 21.333)">
            <g id="Path_2" class="cls-1" data-name="Path 2">
                <path d="M25.326 21.333H.563a.563.563 0 1 0 0 1.126h.563v14.07a.532.532 0 0 0 .563.563h10.692v4.615a1.693 1.693 0 0 0-1.126 1.576 1.688 1.688 0 0 0 3.377 0 1.59 1.59 0 0 0-1.126-1.576v-4.616H24.2a.532.532 0 0 0 .563-.563V22.459h.563a.563.563 0 0 0 0-1.126zM4.5 34.277a.532.532 0 0 1-.563.563.532.532 0 0 1-.563-.563V30.9a.532.532 0 0 1 .563-.563.532.532 0 0 1 .563.563zm2.251 0a.532.532 0 0 1-.563.563.532.532 0 0 1-.563-.563v-5.628a.532.532 0 0 1 .563-.563.532.532 0 0 1 .563.563zm2.251 0a.563.563 0 1 1-1.126 0v-9a.563.563 0 0 1 1.126 0v9zm3.94 9.567a.563.563 0 1 1 .563-.563.532.532 0 0 1-.561.564zm3.377-9a5.022 5.022 0 0 1-.563-10.018v4.953a.532.532 0 0 0 .563.563h4.953a5 5 0 0 1-4.951 4.498zm5.628-5.628h-4.5a.532.532 0 0 1-.563-.563v-4.5a.532.532 0 0 1 .563-.563 5.044 5.044 0 0 1 5.065 5.065.532.532 0 0 1-.563.557z" class="cls-2" transform="translate(0 -21.333)"/>
                <path d="M.563 21.333c-.338 0-.563.225-.563.563 0 .337.225.563.563.563h.563v14.07c0 .337.225.562.562.562h10.693v4.615c-.675.225-1.125.9-1.125 1.576 0 .9.788 1.688 1.688 1.688.9 0 1.689-.788 1.689-1.688 0-.788-.45-1.35-1.126-1.576v-4.615H24.2c.338 0 .563-.225.563-.563v-14.07h.563c.337 0 .562-.225.562-.562 0-.338-.225-.563-.562-.563H.563m21.386 7.88h-4.502c-.338 0-.563-.226-.563-.564v-4.502c0-.338.225-.563.563-.563a5.044 5.044 0 0 1 5.065 5.065c0 .338-.225.563-.563.563M8.442 34.84c-.338 0-.563-.225-.563-.563v-9.004c0-.338.225-.563.563-.563.338 0 .563.225.563.563v9.004c0 .338-.225.563-.563.563m7.879 0a5.044 5.044 0 0 1-5.065-5.065c0-2.589 2.026-4.728 4.502-4.953v4.953c0 .338.225.563.563.563h4.953c-.226 2.476-2.364 4.502-4.953 4.502m-10.13 0c-.338 0-.563-.225-.563-.563V28.65c0-.337.225-.562.563-.562.337 0 .563.225.563.562v5.628c0 .338-.226.563-.563.563m-2.251 0c-.338 0-.563-.225-.563-.563v-3.376c0-.338.225-.563.563-.563.337 0 .562.225.562.563v3.376c0 .338-.225.563-.562.563m9.004 9.005c-.337 0-.563-.225-.563-.563 0-.338.226-.563.563-.563.338 0 .563.225.563.563 0 .338-.225.563-.563.563M.563 19.333h24.763a2.536 2.536 0 0 1 2.562 2.563c0 .9-.441 1.678-1.125 2.134v12.498a2.536 2.536 0 0 1-2.563 2.563h-8.693v1.53a3.625 3.625 0 0 1 1.126 2.661c0 2-1.69 3.688-3.689 3.688-2 0-3.688-1.689-3.688-3.688 0-1.005.427-1.956 1.125-2.636v-1.555H1.688a2.554 2.554 0 0 1-1.822-.74 2.553 2.553 0 0 1-.74-1.823V24.03A2.54 2.54 0 0 1-2 21.896a2.536 2.536 0 0 1 2.563-2.563zm19.603 7.88a3.005 3.005 0 0 0-1.282-1.283v1.282h1.282zm-2.207 5.125h-1.638a2.536 2.536 0 0 1-2.563-2.563v-1.638a2.94 2.94 0 0 0-.502 1.638 3.033 3.033 0 0 0 3.065 3.065 2.94 2.94 0 0 0 1.638-.502z" class="cls-3" transform="translate(0 -21.333)"/>
            </g>
        </g>
    </g>
</svg>
