<svg xmlns="http://www.w3.org/2000/svg" width="20.764" height="20.764" viewBox="0 0 21.764 21.764">
    <defs>
        <style>
            .cls-1{fill:none;stroke:#fff;stroke-linecap:round}
        </style>
    </defs>
    <g id="if_setting_1814117" transform="translate(-7.7 -7.8)">
        <g id="Icon-Gear" transform="translate(8.2 8.3)">
            <path id="Fill-45" d="M-200.371-395.441a4.952 4.952 0 0 1-4.929-4.929 4.952 4.952 0 0 1 4.929-4.929 4.952 4.952 0 0 1 4.929 4.929 4.952 4.952 0 0 1-4.929 4.929zm0-8.812a3.891 3.891 0 0 0-3.882 3.882 3.891 3.891 0 0 0 3.882 3.882 3.891 3.891 0 0 0 3.882-3.882 3.891 3.891 0 0 0-3.882-3.882z" class="cls-1" transform="translate(210.753 410.709)"/>
            <path id="Fill-46" d="M-205.935-396.936h-2.965l-.829-2.53a10.412 10.412 0 0 1-1.614-.654l-2.4 1.221-2.094-2.094 1.221-2.4a7.369 7.369 0 0 1-.654-1.614l-2.53-.829v-2.964l2.53-.829a10.414 10.414 0 0 1 .654-1.614l-1.221-2.4 2.094-2.094 2.4 1.221a7.372 7.372 0 0 1 1.614-.654l.829-2.53h2.966l.829 2.53a10.418 10.418 0 0 1 1.614.654l2.4-1.221 2.094 2.094-1.221 2.4a7.369 7.369 0 0 1 .654 1.614l2.53.829v2.966l-2.53.829a10.414 10.414 0 0 1-.654 1.614l1.221 2.4-2.094 2.094-2.4-1.221a7.369 7.369 0 0 1-1.614.654l-.829 2.53zm-2.225-1h1.483l.785-2.356.262-.087a7.783 7.783 0 0 0 1.876-.785l.262-.131 2.225 1.134 1.047-1.047-1.134-2.225.131-.262a7.119 7.119 0 0 0 .785-1.876l.087-.262 2.356-.785v-1.482l-2.356-.785-.087-.262a7.117 7.117 0 0 0-.785-1.876l-.131-.262 1.134-2.225-1.047-1.047-2.225 1.134-.262-.131a7.119 7.119 0 0 0-1.876-.785l-.262-.087-.785-2.356h-1.483l-.785 2.356-.262.087a7.786 7.786 0 0 0-1.876.785l-.262.131-2.225-1.134-1.047 1.047 1.134 2.225-.131.262a7.118 7.118 0 0 0-.785 1.876l-.087.262-2.356.785v1.483l2.356.785.087.262a7.119 7.119 0 0 0 .785 1.876l.131.262-1.134 2.225 1.047 1.047 2.225-1.134.262.131a7.116 7.116 0 0 0 1.876.785l.262.087.785 2.356z" class="cls-1" transform="translate(217.8 417.7)"/>
        </g>
    </g>
</svg>
